<svg width="20" height="20" viewBox="0 0 20 20" fill="none" xmlns="http://www.w3.org/2000/svg">
<path d="M9.89824 17.4098C6.79752 17.9338 4.77283 16.0268 4.14807 15.0078L4.73037 13.1699L5.40365 11.9871L5.89496 9.69433L7.31431 7.89286L8.77005 7.82007L11.9363 7.89286L14.9569 12.0963L15.976 14.6075C14.2 17.417 11.1841 17.6463 9.89824 17.4098Z" fill="url(#paint0_linear_2_7068)"/>
<path fill-rule="evenodd" clip-rule="evenodd" d="M10.7734 12.7745C10.687 12.8318 10.5872 12.8657 10.4838 12.8729C10.3804 12.8802 10.2769 12.8605 10.1833 12.8159C10.0582 12.7423 9.95791 12.633 9.89521 12.5021C9.83251 12.3712 9.81029 12.2245 9.83137 12.0809C9.77776 11.3688 9.47545 10.6982 8.97733 10.1865C8.81335 10.91 8.52245 11.5987 8.11812 12.2207L7.63676 12.9557C7.17716 13.657 6.96075 14.4899 7.02082 15.3263C7.06622 15.8888 7.32123 16.4138 7.73535 16.7972C8.14946 17.1806 8.69247 17.3946 9.25683 17.3966H10.5612C11.2096 17.3966 11.8315 17.1394 12.2905 16.6814C12.7495 16.2234 13.008 15.602 13.0094 14.9536C13.0084 13.7121 12.5788 12.509 11.7931 11.5478C11.5716 12.0422 11.2189 12.4664 10.7734 12.7745Z" fill="url(#paint1_linear_2_7068)"/>
<path fill-rule="evenodd" clip-rule="evenodd" d="M13.0609 3.42075L12.7917 3.18265C12.7917 3.18265 12.7917 3.28617 12.7917 3.45698C12.7282 4.11201 12.5214 4.74507 12.186 5.31127C11.8506 5.87748 11.3947 6.36298 10.8507 6.73336C10.8507 6.73336 10.8507 6.55221 10.8145 6.26753C10.7242 5.13961 10.3542 4.05199 9.73781 3.10306C9.12146 2.15413 8.27826 1.37384 7.28448 0.832764C7.28448 0.832764 7.24825 1.428 7.20685 2.075C7.14576 3.10812 6.81566 4.10733 6.24929 4.97354L4.73273 7.27684C3.70108 8.8527 3.21721 10.7245 3.35593 12.6029C3.42496 13.521 3.73762 14.4041 4.26169 15.1611C4.78575 15.918 5.50224 16.5215 6.33728 16.9093C6.04637 16.458 5.8688 15.943 5.81969 15.4083C5.74341 14.3128 6.02693 13.2223 6.62714 12.3027L7.1085 11.5729C7.61005 10.8313 7.90811 9.97101 7.97289 9.07808C7.98037 8.97894 8.01214 8.88317 8.0654 8.79921C8.11866 8.71526 8.19177 8.64572 8.27827 8.59671C8.36531 8.54821 8.4633 8.52276 8.56295 8.52276C8.66259 8.52276 8.76058 8.54821 8.84763 8.59671C9.77001 9.09913 10.4715 9.92797 10.8145 10.9207C10.868 10.7759 10.9011 10.6243 10.9128 10.4704C10.9044 10.3366 10.937 10.2034 11.0064 10.0887C11.0758 9.97398 11.1786 9.88322 11.301 9.82859C11.4341 9.78585 11.5772 9.78529 11.7106 9.82698C11.844 9.86868 11.9613 9.95059 12.0464 10.0615C12.7242 10.6826 13.2646 11.4386 13.6327 12.281C14.0009 13.1234 14.1887 14.0335 14.184 14.9528C14.1847 15.5772 14.0223 16.1909 13.713 16.7333C14.633 16.2531 15.4042 15.5306 15.9434 14.6439C16.4825 13.7572 16.7691 12.74 16.772 11.7023C16.7703 10.1386 16.4389 8.59281 15.7994 7.16583C15.16 5.73885 14.2268 4.46273 13.0609 3.42075Z" fill="#FF7A1A"/>
<defs>
<linearGradient id="paint0_linear_2_7068" x1="10.062" y1="7.82007" x2="10.062" y2="17.4992" gradientUnits="userSpaceOnUse">
<stop stop-color="#FFC888"/>
<stop offset="1" stop-color="#FFEBCD"/>
</linearGradient>
<linearGradient id="paint1_linear_2_7068" x1="10.0102" y1="10.1865" x2="10.0102" y2="17.3966" gradientUnits="userSpaceOnUse">
<stop stop-color="#FFBD8D"/>
<stop offset="1" stop-color="#FF6B00"/>
</linearGradient>
</defs>
</svg>
