<svg width="20" height="20" viewBox="0 0 20 20" fill="none" xmlns="http://www.w3.org/2000/svg">
<path d="M6.99999 7.30766V17.6922C6.99999 17.782 7.02882 17.8557 7.08649 17.9134C7.14416 17.9711 7.21791 17.9999 7.30774 17.9999H14V14.9037C14 14.646 14.0862 14.431 14.2587 14.2587C14.4311 14.0862 14.6461 13.9999 14.9037 13.9999H18V7.30766C18 7.21783 17.9712 7.14408 17.9135 7.08641C17.8558 7.02874 17.7821 6.99991 17.6922 6.99991H7.30774C7.21791 6.99991 7.14416 7.02874 7.08649 7.08641C7.02882 7.14408 6.99999 7.21783 6.99999 7.30766ZM5.49999 17.6922V7.29216C5.49999 6.79349 5.67916 6.37016 6.03749 6.02216C6.39582 5.67399 6.82432 5.49991 7.32299 5.49991H17.6922C18.1909 5.49991 18.6169 5.67649 18.9702 6.02966C19.3234 6.38299 19.5 6.80899 19.5 7.30766V14.0402C19.5 14.2813 19.4532 14.5131 19.3595 14.7354C19.266 14.9579 19.1372 15.1512 18.973 15.3152L15.3152 18.9729C15.1512 19.1371 14.958 19.2659 14.7355 19.3594C14.5132 19.4531 14.2814 19.4999 14.0402 19.4999H7.30774C6.80907 19.4999 6.38307 19.3233 6.02974 18.9702C5.67657 18.6168 5.49999 18.1908 5.49999 17.6922ZM0.524989 4.42291C0.431489 3.92424 0.528656 3.47491 0.816489 3.07491C1.10416 2.67491 1.49741 2.42816 1.99624 2.33466L12.2307 0.52491C12.7192 0.43141 13.1609 0.531077 13.5557 0.82391C13.9506 1.11691 14.2051 1.50766 14.3192 1.99616L14.475 2.79991C14.5327 3.04991 14.4938 3.24924 14.3585 3.39791C14.2233 3.54674 14.0628 3.63458 13.877 3.66141C13.691 3.68841 13.5143 3.65541 13.347 3.56241C13.1798 3.46941 13.0642 3.29791 13 3.04791L12.825 2.21141C12.8122 2.14091 12.7737 2.08483 12.7095 2.04316C12.6455 2.00149 12.575 1.98708 12.498 1.99991L2.25974 3.81916C2.16991 3.83199 2.10257 3.87366 2.05774 3.94416C2.01291 4.01466 1.99682 4.09483 2.00949 4.18466L3.67299 13.6692C3.71016 13.8757 3.67299 14.0642 3.56149 14.2347C3.44999 14.4052 3.29107 14.5122 3.08474 14.5557C2.87191 14.5993 2.68116 14.5596 2.51249 14.4364C2.34399 14.3134 2.24116 14.1455 2.20399 13.9327L0.524989 4.42291Z" fill="#3D404B"/>
</svg>
